<svg width="127" height="108" viewBox="0 0 127 108" fill="none" xmlns="http://www.w3.org/2000/svg">
<rect x="1" y="1" width="125" height="106" rx="9" stroke="#04B5FA" stroke-width="2" stroke-dasharray="2 7"/>
<rect x="5" y="4" width="117" height="100" rx="10" fill="#04B5FA"/>
<path d="M83.1667 76.5V71.5C83.1667 68.8478 82.1307 66.3043 80.2866 64.4289C78.4425 62.5536 75.9413 61.5 73.3334 61.5H53.6667C51.0587 61.5 48.5576 62.5536 46.7135 64.4289C44.8694 66.3043 43.8334 68.8478 43.8334 71.5V76.5" stroke="white" stroke-width="3" stroke-linecap="round" stroke-linejoin="round"/>
<path d="M63.5 51.5C68.9308 51.5 73.3333 47.0228 73.3333 41.5C73.3333 35.9772 68.9308 31.5 63.5 31.5C58.0692 31.5 53.6666 35.9772 53.6666 41.5C53.6666 47.0228 58.0692 51.5 63.5 51.5Z" stroke="white" stroke-width="3" stroke-linecap="round" stroke-linejoin="round"/>
</svg>
