<svg width="22" height="24" viewBox="0 0 22 24" fill="none" xmlns="http://www.w3.org/2000/svg">
<path d="M17.6668 7.66667C19.5078 7.66667 21.0002 6.17428 21.0002 4.33333C21.0002 2.49238 19.5078 1 17.6668 1C15.8259 1 14.3335 2.49238 14.3335 4.33333C14.3335 6.17428 15.8259 7.66667 17.6668 7.66667Z" stroke="#999999" stroke-width="1.5" stroke-linecap="round" stroke-linejoin="round"/>
<path d="M4.33333 15.4444C6.17428 15.4444 7.66667 13.9521 7.66667 12.1111C7.66667 10.2702 6.17428 8.77777 4.33333 8.77777C2.49238 8.77777 1 10.2702 1 12.1111C1 13.9521 2.49238 15.4444 4.33333 15.4444Z" stroke="#999999" stroke-width="1.5" stroke-linecap="round" stroke-linejoin="round"/>
<path d="M17.6668 23.2222C19.5078 23.2222 21.0002 21.7298 21.0002 19.8889C21.0002 18.0479 19.5078 16.5556 17.6668 16.5556C15.8259 16.5556 14.3335 18.0479 14.3335 19.8889C14.3335 21.7298 15.8259 23.2222 17.6668 23.2222Z" stroke="#999999" stroke-width="1.5" stroke-linecap="round" stroke-linejoin="round"/>
<path d="M7.21143 13.7889L14.8003 18.2111" stroke="#999999" stroke-width="1.5" stroke-linecap="round" stroke-linejoin="round"/>
<path d="M14.7892 6.01112L7.21143 10.4333" stroke="#999999" stroke-width="1.5" stroke-linecap="round" stroke-linejoin="round"/>
</svg>
