<svg width="32" height="32" viewBox="0 0 32 32" fill="none" xmlns="http://www.w3.org/2000/svg">
<path d="M5.52067 19.4909L3.39934 17.3696C3.20162 17.1734 3.04703 16.9382 2.94548 16.6788C2.84394 16.4195 2.79768 16.1418 2.80966 15.8636C2.82164 15.5853 2.8916 15.3127 3.01506 15.063C3.13853 14.8134 3.31277 14.5923 3.52662 14.4139C5.93894 12.4744 8.77255 11.1278 11.7998 10.4824C14.5939 9.85951 17.4909 9.85951 20.2851 10.4824C23.3248 11.132 26.1687 12.4886 28.5865 14.4422C28.7997 14.62 28.9735 14.8403 29.0969 15.0891C29.2203 15.3378 29.2906 15.6095 29.3032 15.8869C29.3159 16.1642 29.2706 16.4412 29.1703 16.7001C29.0701 16.9591 28.917 17.1943 28.7208 17.3908L26.5995 19.5121C26.2597 19.8586 25.8055 20.0698 25.3216 20.1062C24.8376 20.1427 24.3569 20.0019 23.9691 19.7101C23.2007 19.1208 22.3681 18.6203 21.4871 18.2181C21.1389 18.0601 20.8433 17.8057 20.6352 17.4849C20.4272 17.164 20.3155 16.7903 20.3133 16.4079V14.6119C17.5365 13.8482 14.6049 13.8482 11.8281 14.6119V16.4079C11.8259 16.7903 11.7142 17.164 11.5062 17.4849C11.2981 17.8057 11.0025 18.0601 10.6543 18.2181C9.77333 18.6202 8.94072 19.1208 8.17231 19.7101C7.78037 20.0051 7.29366 20.1458 6.80475 20.1054C6.31584 20.065 5.85884 19.8463 5.52067 19.4909Z" stroke="white" stroke-width="1.5" stroke-linecap="round" stroke-linejoin="round"/>
</svg>
