<svg width="60" height="60" viewBox="0 0 60 60" fill="none" xmlns="http://www.w3.org/2000/svg">
<path d="M8.52282 37.0986L4.2649 32.8407C3.86801 32.447 3.55788 31.9746 3.35437 31.4538C3.15087 30.9329 3.05847 30.3751 3.0831 29.816C3.10773 29.2569 3.24884 28.7089 3.49739 28.2071C3.74595 27.7053 4.09648 27.2607 4.52651 26.9018C9.37719 23.0003 15.0732 20.2891 21.1567 18.9861C26.7719 17.7292 32.5926 17.7234 38.2053 18.9692C44.3114 20.2685 50.0228 22.9884 54.8767 26.9087C55.3047 27.2657 55.6535 27.708 55.9009 28.2075C56.1484 28.707 56.289 29.2527 56.3138 29.81C56.3387 30.3673 56.2472 30.9238 56.0452 31.4443C55.8432 31.9647 55.5352 32.4376 55.1407 32.8328L50.8743 37.0992C50.1909 37.7962 49.2779 38.2213 48.3055 38.2955C47.3331 38.3696 46.3675 38.0877 45.5889 37.5022C44.0462 36.3197 42.3743 35.3157 40.6051 34.5095C39.9058 34.1928 39.3123 33.6821 38.8949 33.0379C38.4776 32.3937 38.2539 31.643 38.2504 30.8748L38.2539 27.2662C32.6762 25.7373 26.7861 25.7432 21.2053 27.2831L21.2018 30.8917C21.1967 31.6599 20.9715 32.4111 20.5529 33.0561C20.1342 33.7011 19.5397 34.213 18.8398 34.5311C17.069 35.3408 15.3951 36.3481 13.8501 37.5337C13.062 38.1273 12.0838 38.4109 11.1016 38.3307C10.1193 38.2504 9.20158 37.8119 8.52282 37.0986Z" stroke="white" stroke-width="2" stroke-linecap="round" stroke-linejoin="round"/>
</svg>
