<svg width="30" height="28" viewBox="0 0 30 28" fill="none" xmlns="http://www.w3.org/2000/svg">
<path d="M21.7334 9.92487H23.0084C24.361 9.92487 25.6582 10.4622 26.6147 11.4186C27.5711 12.3751 28.1084 13.6723 28.1084 15.0249C28.1084 16.3775 27.5711 17.6747 26.6147 18.6311C25.6582 19.5876 24.361 20.1249 23.0084 20.1249H21.7334" stroke="#04B5FA" stroke-width="2" stroke-linecap="round" stroke-linejoin="round"/>
<path d="M1.3335 9.92487H21.7336V21.3999C21.7336 22.7525 21.1962 24.0497 20.2398 25.0062C19.2834 25.9626 17.9862 26.4999 16.6336 26.4999H6.43352C5.08091 26.4999 3.7837 25.9626 2.82726 25.0062C1.87082 24.0497 1.3335 22.7525 1.3335 21.3999V9.92487Z" stroke="#04B5FA" stroke-width="2" stroke-linecap="round" stroke-linejoin="round"/>
<path d="M6.43335 1V4.82501" stroke="#04B5FA" stroke-width="2" stroke-linecap="round" stroke-linejoin="round"/>
<path d="M11.5332 1V4.82501" stroke="#04B5FA" stroke-width="2" stroke-linecap="round" stroke-linejoin="round"/>
<path d="M16.6335 1V4.82501" stroke="#04B5FA" stroke-width="2" stroke-linecap="round" stroke-linejoin="round"/>
</svg>
