<svg width="38" height="38" viewBox="0 0 38 38" fill="none" xmlns="http://www.w3.org/2000/svg">
<path d="M11 1H5C3.93913 1 2.92172 1.42143 2.17157 2.17157C1.42143 2.92172 1 3.93913 1 5V11L11 1ZM37 11V5C37 3.93913 36.5786 2.92172 35.8284 2.17157C35.0783 1.42143 34.0609 1 33 1H27L37 11ZM27 37H33C34.0609 37 35.0783 36.5786 35.8284 35.8284C36.5786 35.0783 37 34.0609 37 33V27L27 37ZM1 27V33C1 34.0609 1.42143 35.0783 2.17157 35.8284C2.92172 36.5786 3.93913 37 5 37H11" stroke="white" stroke-width="2" stroke-linecap="round" stroke-linejoin="round"/>
</svg>
