<svg width="36" height="32" viewBox="0 0 36 32" fill="none" xmlns="http://www.w3.org/2000/svg">
<path d="M6.7498 24.25H5.0998C4.22459 24.25 3.38522 23.9023 2.76635 23.2834C2.14748 22.6646 1.7998 21.8252 1.7998 20.95V4.44999C1.7998 3.57478 2.14748 2.73541 2.76635 2.11654C3.38522 1.49767 4.22459 1.14999 5.0998 1.14999H31.4998C32.375 1.14999 33.2144 1.49767 33.8333 2.11654C34.4521 2.73541 34.7998 3.57478 34.7998 4.44999V20.95C34.7998 21.8252 34.4521 22.6646 33.8333 23.2834C33.2144 23.9023 32.375 24.25 31.4998 24.25H29.8498" stroke="white" stroke-width="2" stroke-linecap="round" stroke-linejoin="round"/>
<path d="M18.3 20.95L26.55 30.85H10.05L18.3 20.95Z" stroke="white" stroke-width="2" stroke-linecap="round" stroke-linejoin="round"/>
</svg>
