<svg width="39" height="33" viewBox="0 0 39 33" fill="none" xmlns="http://www.w3.org/2000/svg">
<path d="M25.9498 31.4V28.1C25.9498 26.3496 25.2545 24.6708 24.0167 23.4331C22.779 22.1954 21.1003 21.5 19.3498 21.5H7.79983C6.0494 21.5 4.37066 22.1954 3.13292 23.4331C1.89518 24.6708 1.19983 26.3496 1.19983 28.1V31.4" stroke="white" stroke-width="2" stroke-linecap="round" stroke-linejoin="round"/>
<path d="M13.5749 14.9C17.2199 14.9 20.1749 11.9451 20.1749 8.30001C20.1749 4.65493 17.2199 1.70001 13.5749 1.70001C9.92977 1.70001 6.97485 4.65493 6.97485 8.30001C6.97485 11.9451 9.92977 14.9 13.5749 14.9Z" stroke="white" stroke-width="2" stroke-linecap="round" stroke-linejoin="round"/>
<path d="M32.5498 9.95001V19.85" stroke="white" stroke-width="2" stroke-linecap="round" stroke-linejoin="round"/>
<path d="M37.4999 14.9H27.5999" stroke="white" stroke-width="2" stroke-linecap="round" stroke-linejoin="round"/>
</svg>
