<svg width="26" height="38" viewBox="0 0 26 38" fill="none" xmlns="http://www.w3.org/2000/svg">
<path d="M12.8092 1.23502C11.5242 1.23502 10.2919 1.74547 9.38324 2.65408C8.47463 3.5627 7.96417 4.79504 7.96417 6.08002V19C7.96417 20.285 8.47463 21.5173 9.38324 22.4259C10.2919 23.3346 11.5242 23.845 12.8092 23.845C14.0941 23.845 15.3265 23.3346 16.2351 22.4259C17.1437 21.5173 17.6542 20.285 17.6542 19V6.08002C17.6542 4.79504 17.1437 3.5627 16.2351 2.65408C15.3265 1.74547 14.0941 1.23502 12.8092 1.23502V1.23502Z" stroke="white" stroke-width="2" stroke-linecap="round" stroke-linejoin="round"/>
<path d="M24.1149 15.77V19C24.1149 21.9983 22.9238 24.8738 20.8037 26.9939C18.6836 29.114 15.8082 30.305 12.8099 30.305C9.81161 30.305 6.93614 29.114 4.81604 26.9939C2.69594 24.8738 1.50488 21.9983 1.50488 19V15.77" stroke="white" stroke-width="2" stroke-linecap="round" stroke-linejoin="round"/>
<path d="M12.81 30.305V36.765" stroke="white" stroke-width="2" stroke-linecap="round" stroke-linejoin="round"/>
<path d="M6.34961 36.765H19.2696" stroke="white" stroke-width="2" stroke-linecap="round" stroke-linejoin="round"/>
</svg>
