<svg width="30" height="30" viewBox="0 0 30 30" fill="none" xmlns="http://www.w3.org/2000/svg">
<rect width="30" height="30" rx="6" fill="white"/>
<path d="M23.9999 15.2C23.9999 14.46 23.9386 13.92 23.806 13.36H15.1836V16.6999H20.2448C20.1428 17.53 19.5918 18.78 18.3672 19.6199L18.3501 19.7317L21.0763 21.8015L21.2652 21.82C22.9999 20.25 23.9999 17.9399 23.9999 15.2Z" fill="#4285F4"/>
<path d="M15.1836 24C17.6632 24 19.7448 23.2 21.2652 21.82L18.3672 19.62C17.5918 20.15 16.5509 20.52 15.1836 20.52C12.755 20.52 10.6938 18.95 9.95907 16.78L9.85137 16.789L7.01656 18.939L6.97949 19.04C8.48968 21.98 11.5917 24 15.1836 24Z" fill="#34A853"/>
<path d="M9.95914 16.78C9.76527 16.22 9.65307 15.62 9.65307 15C9.65307 14.38 9.76527 13.78 9.94894 13.22L9.94381 13.1007L7.07348 10.9162L6.97957 10.96C6.35715 12.18 6 13.55 6 15C6 16.45 6.35715 17.82 6.97957 19.04L9.95914 16.78Z" fill="#FBBC05"/>
<path d="M15.1836 9.47997C16.9081 9.47997 18.0713 10.21 18.7346 10.82L21.3264 8.34C19.7346 6.89 17.6632 6 15.1836 6C11.5917 6 8.48968 8.01998 6.97949 10.96L9.94887 13.22C10.6938 11.05 12.755 9.47997 15.1836 9.47997Z" fill="#EB4335"/>
</svg>
