<svg width="27" height="27" viewBox="0 0 27 27" fill="none" xmlns="http://www.w3.org/2000/svg">
<path d="M5.27572 16.6414L3.5529 14.9186C3.39232 14.7593 3.26683 14.5682 3.18449 14.3574C3.10215 14.1467 3.06477 13.921 3.07473 13.6948C3.0847 13.4686 3.14179 13.2468 3.24236 13.0438C3.34293 12.8407 3.48476 12.6609 3.65876 12.5157C5.62142 10.937 7.92609 9.84004 10.3876 9.31285C12.6596 8.80426 15.0147 8.80192 17.2857 9.30601C19.7563 9.83171 22.0672 10.9322 24.0312 12.5184C24.2044 12.6629 24.3455 12.8418 24.4456 13.0439C24.5458 13.2461 24.6027 13.4669 24.6127 13.6924C24.6228 13.9178 24.5857 14.143 24.504 14.3536C24.4223 14.5642 24.2977 14.7555 24.138 14.9154L22.4118 16.6417C22.1353 16.9237 21.7659 17.0957 21.3724 17.1257C20.9789 17.1557 20.5883 17.0416 20.2732 16.8048C19.649 16.3263 18.9726 15.9201 18.2567 15.5938C17.9738 15.4657 17.7336 15.2591 17.5648 14.9984C17.3959 14.7378 17.3054 14.434 17.3039 14.1232L17.3054 12.6631C15.0485 12.0445 12.6653 12.0469 10.4073 12.6699L10.4058 14.13C10.4038 14.4409 10.3127 14.7448 10.1433 15.0058C9.97389 15.2668 9.73334 15.4739 9.45012 15.6026C8.73364 15.9302 8.05636 16.3378 7.43121 16.8175C7.11234 17.0576 6.71656 17.1724 6.31913 17.1399C5.9217 17.1075 5.55036 16.9301 5.27572 16.6414Z" stroke="white" stroke-width="2" stroke-linecap="round" stroke-linejoin="round"/>
</svg>
