<svg width="14" height="17" viewBox="0 0 14 17" fill="none" xmlns="http://www.w3.org/2000/svg">
<path d="M7.24662 1.58124C6.7267 1.58124 6.22807 1.78777 5.86043 2.15541C5.49279 2.52305 5.28626 3.02168 5.28626 3.5416V8.76923C5.28626 9.28915 5.49279 9.78778 5.86043 10.1554C6.22807 10.5231 6.7267 10.7296 7.24662 10.7296C7.76654 10.7296 8.26516 10.5231 8.6328 10.1554C9.00044 9.78778 9.20698 9.28915 9.20698 8.76923V3.5416C9.20698 3.02168 9.00044 2.52305 8.6328 2.15541C8.26516 1.78777 7.76654 1.58124 7.24662 1.58124V1.58124Z" stroke="white" stroke-width="2" stroke-linecap="round" stroke-linejoin="round"/>
<path d="M11.8212 7.46233V8.76924C11.8212 9.98239 11.3393 11.1458 10.4815 12.0037C9.62363 12.8615 8.46017 13.3434 7.24703 13.3434C6.03388 13.3434 4.87042 12.8615 4.0126 12.0037C3.15477 11.1458 2.67285 9.98239 2.67285 8.76924V7.46233" stroke="white" stroke-width="2" stroke-linecap="round" stroke-linejoin="round"/>
<path d="M7.2469 13.3434V15.9572" stroke="white" stroke-width="2" stroke-linecap="round" stroke-linejoin="round"/>
<path d="M4.6331 15.9572H9.86073" stroke="white" stroke-width="2" stroke-linecap="round" stroke-linejoin="round"/>
<path d="M1.42135 14.0926C1.01744 13.7159 0.995341 13.0831 1.372 12.6792L11.602 1.70891C11.9786 1.305 12.6114 1.2829 13.0153 1.65956V1.65956C13.4192 2.03622 13.4413 2.669 13.0647 3.07291L2.83471 14.0432C2.45805 14.4471 1.82527 14.4692 1.42135 14.0926V14.0926Z" fill="white"/>
</svg>
