<svg width="18" height="15" viewBox="0 0 18 15" fill="none" xmlns="http://www.w3.org/2000/svg">
<path d="M11.6539 14.0003V12.6651C11.6539 11.9568 11.3725 11.2776 10.8717 10.7768C10.3709 10.276 9.69167 9.99463 8.98342 9.99463H4.31011C3.60186 9.99463 2.92262 10.276 2.42181 10.7768C1.921 11.2776 1.63965 11.9568 1.63965 12.6651V14.0003" stroke="white" stroke-width="2" stroke-linecap="round" stroke-linejoin="round"/>
<path d="M6.64702 7.32414C8.12188 7.32414 9.31749 6.12853 9.31749 4.65368C9.31749 3.17882 8.12188 1.98322 6.64702 1.98322C5.17217 1.98322 3.97656 3.17882 3.97656 4.65368C3.97656 6.12853 5.17217 7.32414 6.64702 7.32414Z" stroke="white" stroke-width="2" stroke-linecap="round" stroke-linejoin="round"/>
<path d="M14.3242 5.32129V9.32698" stroke="white" stroke-width="2" stroke-linecap="round" stroke-linejoin="round"/>
<path d="M16.3272 7.32416H12.3215" stroke="white" stroke-width="2" stroke-linecap="round" stroke-linejoin="round"/>
</svg>
