<svg width="12" height="17" viewBox="0 0 12 17" fill="none" xmlns="http://www.w3.org/2000/svg">
<path d="M6.24674 1.58124C5.72682 1.58124 5.22819 1.78778 4.86055 2.15541C4.49291 2.52305 4.28638 3.02168 4.28638 3.5416V8.76923C4.28638 9.28915 4.49291 9.78778 4.86055 10.1554C5.22819 10.5231 5.72682 10.7296 6.24674 10.7296C6.76666 10.7296 7.26528 10.5231 7.63292 10.1554C8.00056 9.78778 8.2071 9.28915 8.2071 8.76923V3.5416C8.2071 3.02168 8.00056 2.52305 7.63292 2.15541C7.26528 1.78778 6.76666 1.58124 6.24674 1.58124V1.58124Z" stroke="white" stroke-width="2" stroke-linecap="round" stroke-linejoin="round"/>
<path d="M10.8212 7.46234V8.76925C10.8212 9.9824 10.3393 11.1459 9.48146 12.0037C8.62364 12.8615 7.46018 13.3434 6.24703 13.3434C5.03388 13.3434 3.87042 12.8615 3.0126 12.0037C2.15477 11.1459 1.67285 9.9824 1.67285 8.76925V7.46234" stroke="white" stroke-width="2" stroke-linecap="round" stroke-linejoin="round"/>
<path d="M6.24683 13.3434V15.9572" stroke="white" stroke-width="2" stroke-linecap="round" stroke-linejoin="round"/>
<path d="M3.63306 15.9572H8.86069" stroke="white" stroke-width="2" stroke-linecap="round" stroke-linejoin="round"/>
</svg>
