<svg width="16" height="15" viewBox="0 0 16 15" fill="none" xmlns="http://www.w3.org/2000/svg">
<path d="M3.25578 11.1073H2.58816C2.23404 11.1073 1.89441 10.9666 1.64401 10.7162C1.39361 10.4658 1.25293 10.1262 1.25293 9.77207V3.09591C1.25293 2.74179 1.39361 2.40217 1.64401 2.15176C1.89441 1.90136 2.23404 1.76068 2.58816 1.76068H13.27C13.6241 1.76068 13.9638 1.90136 14.2142 2.15176C14.4646 2.40217 14.6052 2.74179 14.6052 3.09591V9.77207C14.6052 10.1262 14.4646 10.4658 14.2142 10.7162C13.9638 10.9666 13.6241 11.1073 13.27 11.1073H12.6024" stroke="white" stroke-width="2" stroke-linecap="round" stroke-linejoin="round"/>
<path d="M7.9289 9.77203L11.267 13.7777H4.59082L7.9289 9.77203Z" stroke="white" stroke-width="2" stroke-linecap="round" stroke-linejoin="round"/>
</svg>
