<svg width="29" height="7" viewBox="0 0 29 7" fill="none" xmlns="http://www.w3.org/2000/svg">
<path d="M14.5001 5.85924C15.8496 5.85924 16.9435 4.77146 16.9435 3.42962C16.9435 2.08778 15.8496 1 14.5001 1C13.1506 1 12.0566 2.08778 12.0566 3.42962C12.0566 4.77146 13.1506 5.85924 14.5001 5.85924Z" fill="#999999" stroke="#999999" stroke-width="2" stroke-linecap="round" stroke-linejoin="round"/>
<path d="M25.5567 5.85924C26.9062 5.85924 28.0002 4.77146 28.0002 3.42962C28.0002 2.08778 26.9062 1 25.5567 1C24.2072 1 23.1133 2.08778 23.1133 3.42962C23.1133 4.77146 24.2072 5.85924 25.5567 5.85924Z" fill="#999999" stroke="#999999" stroke-width="2" stroke-linecap="round" stroke-linejoin="round"/>
<path d="M3.44344 5.85924C4.79291 5.85924 5.88688 4.77146 5.88688 3.42962C5.88688 2.08778 4.79291 1 3.44344 1C2.09396 1 1 2.08778 1 3.42962C1 4.77146 2.09396 5.85924 3.44344 5.85924Z" fill="#999999" stroke="#999999" stroke-width="2" stroke-linecap="round" stroke-linejoin="round"/>
</svg>
