<svg width="27" height="38" viewBox="0 0 27 38" fill="none" xmlns="http://www.w3.org/2000/svg">
<path d="M13.8089 1.23502C12.5239 1.23502 11.2915 1.74547 10.3829 2.65408C9.47432 3.5627 8.96387 4.79504 8.96387 6.08002V19C8.96387 20.285 9.47432 21.5173 10.3829 22.4259C11.2915 23.3346 12.5239 23.845 13.8089 23.845C15.0938 23.845 16.3262 23.3346 17.2348 22.4259C18.1434 21.5173 18.6539 20.285 18.6539 19V6.08002C18.6539 4.79504 18.1434 3.5627 17.2348 2.65408C16.3262 1.74547 15.0938 1.23502 13.8089 1.23502V1.23502Z" stroke="white" stroke-width="2" stroke-linecap="round" stroke-linejoin="round"/>
<path d="M25.1149 15.7701V19.0001C25.1149 21.9983 23.9238 24.8738 21.8037 26.9939C19.6836 29.114 16.8082 30.3051 13.8099 30.3051C10.8116 30.3051 7.93614 29.114 5.81604 26.9939C3.69594 24.8738 2.50488 21.9983 2.50488 19.0001V15.7701" stroke="white" stroke-width="2" stroke-linecap="round" stroke-linejoin="round"/>
<path d="M13.8096 30.305V36.765" stroke="white" stroke-width="2" stroke-linecap="round" stroke-linejoin="round"/>
<path d="M7.34961 36.765H20.2696" stroke="white" stroke-width="2" stroke-linecap="round" stroke-linejoin="round"/>
<rect x="0.922363" y="35.22" width="41" height="2" rx="1" transform="rotate(-55 0.922363 35.22)" fill="white"/>
</svg>
