<svg width="26" height="38" viewBox="0 0 26 38" fill="none" xmlns="http://www.w3.org/2000/svg">
<path d="M12.8091 1.23502C11.5241 1.23502 10.2918 1.74547 9.38318 2.65408C8.47456 3.5627 7.96411 4.79504 7.96411 6.08002V19C7.96411 20.285 8.47456 21.5173 9.38318 22.4259C10.2918 23.3346 11.5241 23.845 12.8091 23.845C14.0941 23.845 15.3264 23.3346 16.235 22.4259C17.1437 21.5173 17.6541 20.285 17.6541 19V6.08002C17.6541 4.79504 17.1437 3.5627 16.235 2.65408C15.3264 1.74547 14.0941 1.23502 12.8091 1.23502V1.23502Z" stroke="white" stroke-width="2" stroke-linecap="round" stroke-linejoin="round"/>
<path d="M24.1149 15.77V19C24.1149 21.9983 22.9238 24.8738 20.8037 26.9939C18.6836 29.114 15.8082 30.305 12.8099 30.305C9.81161 30.305 6.93614 29.114 4.81604 26.9939C2.69594 24.8738 1.50488 21.9983 1.50488 19V15.77" stroke="white" stroke-width="2" stroke-linecap="round" stroke-linejoin="round"/>
<path d="M12.8098 30.305V36.765" stroke="white" stroke-width="2" stroke-linecap="round" stroke-linejoin="round"/>
<path d="M6.34961 36.765H19.2696" stroke="white" stroke-width="2" stroke-linecap="round" stroke-linejoin="round"/>
</svg>
