<svg width="16" height="16" viewBox="0 0 16 16" fill="none" xmlns="http://www.w3.org/2000/svg">
<path d="M8 15C11.866 15 15 11.866 15 8C15 4.13401 11.866 1 8 1C4.13401 1 1 4.13401 1 8C1 11.866 4.13401 15 8 15Z" fill="#999999" stroke="#999999" stroke-width="2" stroke-linecap="round" stroke-linejoin="round"/>
<path d="M7.184 9.792V9.444C7.184 9.036 7.26 8.656 7.412 8.304C7.564 7.944 7.832 7.54 8.216 7.092C8.52 6.74 8.732 6.44 8.852 6.192C8.972 5.944 9.032 5.68 9.032 5.4C9.032 5.064 8.912 4.8 8.672 4.608C8.432 4.408 8.1 4.308 7.676 4.308C7.236 4.308 6.828 4.388 6.452 4.548C6.076 4.708 5.72 4.948 5.384 5.268L5.024 4.5C5.336 4.18 5.732 3.924 6.212 3.732C6.692 3.532 7.196 3.432 7.724 3.432C8.412 3.432 8.968 3.608 9.392 3.96C9.816 4.304 10.028 4.76 10.028 5.328C10.028 5.704 9.944 6.056 9.776 6.384C9.616 6.712 9.332 7.092 8.924 7.524C8.548 7.924 8.28 8.276 8.12 8.58C7.968 8.876 7.872 9.18 7.832 9.492L7.808 9.792H7.184ZM6.884 12V10.776H8.108V12H6.884Z" fill="white"/>
</svg>
