<svg width="39" height="33" viewBox="0 0 39 33" fill="none" xmlns="http://www.w3.org/2000/svg">
<path d="M25.9497 31.4V28.1C25.9497 26.3496 25.2544 24.6708 24.0166 23.4331C22.7789 22.1954 21.1001 21.5 19.3497 21.5H7.79971C6.04928 21.5 4.37054 22.1954 3.1328 23.4331C1.89506 24.6708 1.19971 26.3496 1.19971 28.1V31.4" stroke="white" stroke-width="2" stroke-linecap="round" stroke-linejoin="round"/>
<path d="M13.5746 14.9C17.2197 14.9 20.1746 11.9451 20.1746 8.30001C20.1746 4.65493 17.2197 1.70001 13.5746 1.70001C9.92953 1.70001 6.97461 4.65493 6.97461 8.30001C6.97461 11.9451 9.92953 14.9 13.5746 14.9Z" stroke="white" stroke-width="2" stroke-linecap="round" stroke-linejoin="round"/>
<path d="M32.5498 9.95001V19.85" stroke="white" stroke-width="2" stroke-linecap="round" stroke-linejoin="round"/>
<path d="M37.4996 14.9H27.5996" stroke="white" stroke-width="2" stroke-linecap="round" stroke-linejoin="round"/>
</svg>
