<svg width="35" height="31" viewBox="0 0 35 31" fill="none" xmlns="http://www.w3.org/2000/svg">
<path d="M31 25H27C26.4477 25 26 25.4477 26 26V27C26 27.5523 26.4477 28 27 28H31C31.5523 28 32 27.5523 32 27V26C32 25.4477 31.5523 25 31 25Z" fill="white"/>
<path d="M32 7H3C1.89543 7 1 7.89543 1 9V28C1 29.1046 1.89543 30 3 30H32C33.1046 30 34 29.1046 34 28V9C34 7.89543 33.1046 7 32 7Z" stroke="white" stroke-width="2" stroke-linejoin="round"/>
<path d="M17.25 2.5C17.9404 2.5 18.5 1.94036 18.5 1.25C18.5 0.559644 17.9404 0 17.25 0C16.5596 0 16 0.559644 16 1.25C16 1.94036 16.5596 2.5 17.25 2.5Z" fill="white"/>
<path d="M16.6608 0.792002L6.22 6.82001L6.72 7.68603L17.1608 1.65803L16.6608 0.792002Z" fill="white"/>
<path d="M17.2847 1.62659L27.78 7.68604L28.28 6.82001L17.7847 0.760565L17.2847 1.62659Z" fill="white"/>
</svg>
