<svg width="18" height="17" viewBox="0 0 18 17" fill="none" xmlns="http://www.w3.org/2000/svg">
<path d="M16.6659 5.64401L11.8676 5.19029C11.5652 5.16279 11.3038 4.9703 11.1802 4.68157L9.46156 0.515591C9.18657 -0.171864 8.21025 -0.171864 7.93527 0.515591L6.23038 4.68157C6.12039 4.9703 5.8454 5.16279 5.54292 5.19029L0.744486 5.64401C0.0295327 5.71275 -0.259199 6.60645 0.277017 7.08766L3.89303 10.2637C4.12677 10.4699 4.22301 10.7724 4.15426 11.0749L3.06808 15.5295C2.9031 16.2308 3.6593 16.8081 4.29176 16.4371L8.29274 14.0858C8.55398 13.9346 8.87021 13.9346 9.13144 14.0858L13.1326 16.4371C13.765 16.8081 14.5212 16.2446 14.3561 15.5295L13.2837 11.0749C13.2149 10.7724 13.3112 10.4699 13.5449 10.2637L17.1609 7.08766C17.6834 6.60645 17.3809 5.71275 16.6659 5.64401Z" fill="#FAD245"/>
</svg>
