<svg width="16" height="16" viewBox="0 0 16 16" fill="none" xmlns="http://www.w3.org/2000/svg">
<circle cx="8" cy="8" r="8" fill="#E3E3E3"/>
<path d="M7.184 9.012C7.184 8.572 7.264 8.2 7.424 7.896C7.584 7.592 7.816 7.26 8.12 6.9C8.352 6.62 8.524 6.384 8.636 6.192C8.748 6 8.804 5.784 8.804 5.544C8.804 5.272 8.708 5.06 8.516 4.908C8.324 4.748 8.056 4.668 7.712 4.668C7.368 4.668 7.004 4.744 6.62 4.896C6.244 5.048 5.872 5.264 5.504 5.544L5 4.416C5.328 4.12 5.752 3.884 6.272 3.708C6.792 3.532 7.312 3.444 7.832 3.444C8.32 3.444 8.752 3.528 9.128 3.696C9.504 3.856 9.796 4.088 10.004 4.392C10.22 4.688 10.328 5.028 10.328 5.412C10.328 5.828 10.228 6.192 10.028 6.504C9.828 6.816 9.54 7.16 9.164 7.536C8.836 7.888 8.588 8.176 8.42 8.4C8.26 8.624 8.16 8.88 8.12 9.168L8.072 9.492H7.184V9.012ZM6.812 10.344H8.492V12H6.812V10.344Z" fill="white"/>
</svg>
