<svg width="40" height="45" viewBox="0 0 40 45" fill="none" xmlns="http://www.w3.org/2000/svg">
<path opacity="0.8" d="M4.41 40.126C3.63533 40.126 2.93533 40.028 2.31 39.832C1.68467 39.6267 1.14333 39.3327 0.686 38.95L1.092 38.026C1.568 38.39 2.06733 38.6607 2.59 38.838C3.11267 39.0153 3.71933 39.104 4.41 39.104C5.25 39.104 5.87067 38.95 6.272 38.642C6.68267 38.3247 6.888 37.9093 6.888 37.396C6.888 36.9853 6.73867 36.6587 6.44 36.416C6.15067 36.1733 5.66067 35.982 4.97 35.842L3.514 35.548C2.63667 35.3613 1.97867 35.058 1.54 34.638C1.11067 34.2087 0.896 33.6393 0.896 32.93C0.896 32.342 1.04533 31.8287 1.344 31.39C1.652 30.9513 2.07667 30.6107 2.618 30.368C3.15933 30.1253 3.78467 30.004 4.494 30.004C5.15667 30.004 5.77267 30.1113 6.342 30.326C6.91133 30.5313 7.392 30.83 7.784 31.222L7.378 32.118C6.958 31.7353 6.51467 31.46 6.048 31.292C5.58133 31.1147 5.05867 31.026 4.48 31.026C3.74267 31.026 3.15467 31.1987 2.716 31.544C2.27733 31.88 2.058 32.328 2.058 32.888C2.058 33.336 2.19333 33.6907 2.464 33.952C2.744 34.2133 3.19667 34.4047 3.822 34.526L5.278 34.834C6.22067 35.03 6.916 35.3287 7.364 35.73C7.82133 36.122 8.05 36.6587 8.05 37.34C8.05 37.8907 7.90067 38.376 7.602 38.796C7.31267 39.216 6.89267 39.5427 6.342 39.776C5.80067 40.0093 5.15667 40.126 4.41 40.126ZM12.7433 40.126C11.6699 40.126 10.8206 39.8133 10.1953 39.188C9.56995 38.5533 9.25728 37.6947 9.25728 36.612C9.25728 35.912 9.39728 35.296 9.67728 34.764C9.95728 34.2227 10.3399 33.8073 10.8253 33.518C11.3199 33.2193 11.8893 33.07 12.5333 33.07C13.4573 33.07 14.1806 33.3687 14.7033 33.966C15.2259 34.554 15.4873 35.366 15.4873 36.402V36.836H10.3633C10.4006 37.6107 10.6246 38.2033 11.0353 38.614C11.4459 39.0153 12.0153 39.216 12.7433 39.216C13.1539 39.216 13.5459 39.1553 13.9193 39.034C14.2926 38.9033 14.6473 38.6933 14.9833 38.404L15.3753 39.202C15.0673 39.4913 14.6753 39.72 14.1993 39.888C13.7233 40.0467 13.2379 40.126 12.7433 40.126ZM12.5613 33.91C11.9173 33.91 11.4086 34.1107 11.0353 34.512C10.6619 34.9133 10.4426 35.4407 10.3773 36.094H14.5073C14.4793 35.4033 14.2973 34.8667 13.9613 34.484C13.6346 34.1013 13.1679 33.91 12.5613 33.91ZM19.2145 40.126C18.5238 40.126 18.0011 39.9253 17.6465 39.524C17.3011 39.1133 17.1285 38.5207 17.1285 37.746V30.13H18.2625V37.662C18.2625 38.6607 18.6591 39.16 19.4525 39.16C19.6858 39.16 19.8958 39.132 20.0825 39.076L20.0545 40.028C19.7651 40.0933 19.4851 40.126 19.2145 40.126ZM24.2687 40.126C23.1953 40.126 22.346 39.8133 21.7207 39.188C21.0953 38.5533 20.7827 37.6947 20.7827 36.612C20.7827 35.912 20.9227 35.296 21.2027 34.764C21.4827 34.2227 21.8653 33.8073 22.3507 33.518C22.8453 33.2193 23.4147 33.07 24.0587 33.07C24.9827 33.07 25.706 33.3687 26.2287 33.966C26.7513 34.554 27.0127 35.366 27.0127 36.402V36.836H21.8887C21.926 37.6107 22.15 38.2033 22.5607 38.614C22.9713 39.0153 23.5407 39.216 24.2687 39.216C24.6793 39.216 25.0713 39.1553 25.4447 39.034C25.818 38.9033 26.1727 38.6933 26.5087 38.404L26.9007 39.202C26.5927 39.4913 26.2007 39.72 25.7247 39.888C25.2487 40.0467 24.7633 40.126 24.2687 40.126ZM24.0867 33.91C23.4427 33.91 22.934 34.1107 22.5607 34.512C22.1873 34.9133 21.968 35.4407 21.9027 36.094H26.0327C26.0047 35.4033 25.8227 34.8667 25.4867 34.484C25.16 34.1013 24.6933 33.91 24.0867 33.91ZM31.5378 40.126C30.8565 40.126 30.2685 39.9813 29.7738 39.692C29.2792 39.3933 28.8965 38.978 28.6258 38.446C28.3645 37.9047 28.2338 37.2747 28.2338 36.556C28.2338 35.4733 28.5278 34.624 29.1158 34.008C29.7038 33.3827 30.5112 33.07 31.5378 33.07C31.9578 33.07 32.3732 33.1447 32.7838 33.294C33.1945 33.4433 33.5352 33.6533 33.8058 33.924L33.4138 34.75C33.1432 34.4887 32.8445 34.2973 32.5178 34.176C32.2005 34.0547 31.8972 33.994 31.6078 33.994C30.8985 33.994 30.3525 34.218 29.9698 34.666C29.5872 35.1047 29.3958 35.7393 29.3958 36.57C29.3958 37.382 29.5872 38.026 29.9698 38.502C30.3525 38.9687 30.8985 39.202 31.6078 39.202C31.8972 39.202 32.2005 39.1413 32.5178 39.02C32.8445 38.8987 33.1432 38.7027 33.4138 38.432L33.8058 39.258C33.5352 39.5287 33.1898 39.7433 32.7698 39.902C32.3592 40.0513 31.9485 40.126 31.5378 40.126ZM37.8643 40.126C37.0616 40.126 36.4596 39.916 36.0583 39.496C35.657 39.0667 35.4563 38.4507 35.4563 37.648V34.078H34.1263V33.196H35.4563V31.11H36.5903V33.196H38.7463V34.078H36.5903V37.536C36.5903 38.068 36.7023 38.474 36.9263 38.754C37.1503 39.0247 37.5143 39.16 38.0183 39.16C38.1676 39.16 38.317 39.1413 38.4663 39.104C38.6156 39.0667 38.751 39.0293 38.8723 38.992L39.0683 39.86C38.947 39.9253 38.7696 39.986 38.5363 40.042C38.303 40.098 38.079 40.126 37.8643 40.126Z" fill="white"/>
<path d="M13 8L10 11L13 14" stroke="white" stroke-width="2" stroke-linecap="round" stroke-linejoin="round"/>
<path d="M17 4L20 1L23 4" stroke="white" stroke-width="2" stroke-linecap="round" stroke-linejoin="round"/>
<path d="M23 18L20 21L17 18" stroke="white" stroke-width="2" stroke-linecap="round" stroke-linejoin="round"/>
<path d="M27 8L30 11L27 14" stroke="white" stroke-width="2" stroke-linecap="round" stroke-linejoin="round"/>
<path d="M10 11H30" stroke="white" stroke-width="2" stroke-linecap="round" stroke-linejoin="round"/>
<path d="M20 1V21" stroke="white" stroke-width="2" stroke-linecap="round" stroke-linejoin="round"/>
</svg>
